<svg xmlns="http://www.w3.org/2000/svg" width="1000" height="510" viewBox="0 0 1000 510"><title>Engineered and learned mechanism tracks</title><desc>Research architecture by Arnav123-s. Both tracks require independent validation.</desc><defs><marker id="arr" markerWidth="8" markerHeight="8" refX="7" refY="4" orient="auto"><path d="M0,0 L8,4 L0,8" fill="#426176"/></marker></defs><style>text{font-family:Arial,sans-serif;font-size:18px;fill:#172a38}.title{font-weight:bold;font-size:23px}.box{fill:#edf3f7;stroke:#8ca5b5}.arrow{stroke:#426176;stroke-width:2;marker-end:url(#arr);fill:none}</style><rect width="1000" height="510" fill="white"/><text x="30" y="40" class="title">Two different claims require two different experiments</text>
<rect class="box" x="30" y="80" width="420" height="145" rx="9"/><text class="title" x="48" y="115">A. We engineer the mechanism</text><text x="48" y="151">fixed update laws and component contracts</text><text x="48" y="178">model learns task pathways within them</text><text x="48" y="205">test whether that supplied mechanism helps</text>
<rect class="box" x="550" y="80" width="420" height="145" rx="9"/><text class="title" x="568" y="115">B. Model learns the mechanism</text><text x="568" y="151">select, compose, then learn update rules</text><text x="568" y="178">propose new configurations from experience</text><text x="568" y="205">test transfer to independent task sequences</text>
<path class="arrow" d="M240,225 L240,285 L495,285 L495,315"/><path class="arrow" d="M760,225 L760,285 L505,285 L505,315"/>
<rect class="box" x="210" y="325" width="580" height="115" rx="9"/><text class="title" x="230" y="359">Shared verification and resource boundary</text><text x="230" y="395">types, correctness, retention, cost, versioned promotion</text><text x="230" y="422">no unreviewed change to the acceptance contract</text>
<text x="30" y="483">Learning to use a supplied rule is different from learning to construct or improve that rule.</text></svg>